<svg xmlns="http://www.w3.org/2000/svg" version="1.1" xmlns:xlink="http://www.w3.org/1999/xlink" xmlns:svgjs="http://svgjs.com/svgjs" width="800" height="600" preserveAspectRatio="none" viewBox="0 0 800 600"><g mask="url(&quot;#SvgjsMask4189&quot;)" fill="none"><rect width="276" height="276" clip-path="url(&quot;#SvgjsClipPath4190&quot;)" x="-32.24" y="105.06" fill="url(#SvgjsPattern4191)" transform="rotate(17.75, 105.76, 243.06)"></rect><path d="M344.03 130.73L355.65 125.35 363.45 135.5 375.07 130.11 382.87 140.27 394.49 134.88 402.3 145.03" stroke="rgba(21, 24, 83, 0.59)" stroke-width="1.82" stroke-dasharray="2, 2"></path><rect width="193.6" height="193.6" clip-path="url(&quot;#SvgjsClipPath4192&quot;)" x="202.77" y="256.92" fill="url(#SvgjsPattern4193)" transform="rotate(2.28, 299.57, 353.72)"></rect><path d="M708.78 569.92a5.6 5.6 0 1 0-10.36 4.25 5.6 5.6 0 1 0 10.36-4.25zM693.98 576a5.6 5.6 0 1 0-10.35 4.25 5.6 5.6 0 1 0 10.35-4.25zM679.19 582.08a5.6 5.6 0 1 0-10.36 4.26 5.6 5.6 0 1 0 10.36-4.26zM664.39 588.16a5.6 5.6 0 1 0-10.36 4.26 5.6 5.6 0 1 0 10.36-4.26zM732.3 542.95a5.6 5.6 0 1 0-10.36 4.26 5.6 5.6 0 1 0 10.36-4.26zM717.5 549.03a5.6 5.6 0 1 0-10.36 4.26 5.6 5.6 0 1 0 10.36-4.26zM702.7 555.12a5.6 5.6 0 1 0-10.36 4.25 5.6 5.6 0 1 0 10.36-4.25zM687.9 561.2a5.6 5.6 0 1 0-10.36 4.26 5.6 5.6 0 1 0 10.36-4.26zM755.82 515.99a5.6 5.6 0 1 0-10.36 4.26 5.6 5.6 0 1 0 10.36-4.26zM741.02 522.07a5.6 5.6 0 1 0-10.36 4.26 5.6 5.6 0 1 0 10.36-4.26zM726.22 528.15a5.6 5.6 0 1 0-10.36 4.26 5.6 5.6 0 1 0 10.36-4.26zM711.42 534.24a5.6 5.6 0 1 0-10.36 4.25 5.6 5.6 0 1 0 10.36-4.25z" fill="rgba(223, 66, 177, 0.56)"></path><rect width="273" height="273" clip-path="url(&quot;#SvgjsClipPath4194&quot;)" x="269.8" y="69.45" fill="url(#SvgjsPattern4195)" transform="rotate(84.91, 406.3, 205.95)"></rect><rect width="156.48" height="156.48" clip-path="url(&quot;#SvgjsClipPath4196&quot;)" x="253.18" y="-59.75" fill="url(#SvgjsPattern4197)" transform="rotate(252.17, 331.42, 18.49)"></rect></g><defs><mask id="SvgjsMask4189"><rect width="800" height="600" fill="#ffffff"></rect></mask><pattern x="0" y="0" width="6" height="6" patternUnits="userSpaceOnUse" id="SvgjsPattern4191"><path d="M0 6L3 0L6 6" stroke="rgba(21, 24, 83, 0.59)" fill="none"></path></pattern><clipPath id="SvgjsClipPath4190"><circle r="69" cx="105.76" cy="243.06"></circle></clipPath><pattern x="0" y="0" width="193.6" height="9.68" patternUnits="userSpaceOnUse" id="SvgjsPattern4193"><rect width="193.6" height="4.84" x="0" y="0" fill="rgba(223, 66, 177, 0.56)"></rect><rect width="193.6" height="4.84" x="0" y="4.84" fill="rgba(0, 0, 0, 0)"></rect></pattern><clipPath id="SvgjsClipPath4192"><circle r="48.4" cx="299.57" cy="353.72"></circle></clipPath><pattern x="0" y="0" width="9.1" height="9.1" patternUnits="userSpaceOnUse" id="SvgjsPattern4195"><path d="M4.55 1L4.55 8.1M1 4.55L8.1 4.55" stroke="rgba(223, 66, 177, 0.56)" fill="none" stroke-width="1"></path></pattern><clipPath id="SvgjsClipPath4194"><circle r="68.25" cx="406.3" cy="205.95"></circle></clipPath><pattern x="0" y="0" width="6.52" height="6.52" patternUnits="userSpaceOnUse" id="SvgjsPattern4197"><path d="M0 6.52L3.26 0L6.52 6.52" stroke="rgba(223, 66, 177, 0.56)" fill="none"></path></pattern><clipPath id="SvgjsClipPath4196"><circle r="39.12" cx="331.42" cy="18.49"></circle></clipPath></defs></svg>